<mxfile host="app.diagrams.net" modified="2024-03-28T18:20:13.657Z" agent="Mozilla/5.0 (Macintosh; Intel Mac OS X 10_15_7) AppleWebKit/605.1.15 (KHTML, like Gecko) Version/17.1 Safari/605.1.15" version="24.2.1" etag="scPW_KH7eB7LbVmrNHcX" type="github">
  <diagram name="Page-1" id="gqFo_-2ybSTio-qmtb-r">
    <mxGraphModel>
      <root>
        <mxCell id="0" />
        <mxCell id="1" parent="0" />
      </root>
    </mxGraphModel>
  </diagram>
</mxfile>
